<svg xmlns="http://www.w3.org/2000/svg" viewBox="0 0 512 512"><defs><linearGradient id="b" x1="65" y1="45" x2="450" y2="475" gradientUnits="userSpaceOnUse"><stop stop-color="#211628"/><stop offset="1" stop-color="#09080e"/></linearGradient><linearGradient id="s" x1="145" y1="110" x2="370" y2="405" gradientUnits="userSpaceOnUse"><stop stop-color="#ffd2f5"/><stop offset=".48" stop-color="#d58ce9"/><stop offset="1" stop-color="#8b66df"/></linearGradient></defs><rect x="24" y="24" width="464" height="464" rx="132" fill="url(#b)"/><path d="M256 105l25 82 82 25-82 25-25 82-25-82-82-25 82-25 25-82Z" fill="url(#s)"/><path d="M365 286l14 46 46 14-46 14-14 46-14-46-46-14 46-14 14-46Z" fill="#e7c6f5" opacity=".85"/><path d="M155 292l10 33 33 10-33 10-10 33-10-33-33-10 33-10 10-33Z" fill="#a997ed" opacity=".82"/><circle cx="256" cy="212" r="18" fill="#fff" opacity=".9"/><rect x="25" y="25" width="462" height="462" rx="131" fill="none" stroke="#fff" stroke-opacity=".08" stroke-width="2"/></svg>